<svg version="1.1" xmlns="http://www.w3.org/2000/svg" viewBox="0 0 131.23941652537155 134.03789241280242" width="262.4788330507431" height="268.07578482560484">
  <!-- svg-source:excalidraw -->
  
  <defs>
    <style class="style-fonts">
      @font-face {
        font-family: "Virgil";
        src: url("https://excalidraw.com/Virgil.woff2");
      }
      @font-face {
        font-family: "Cascadia";
        src: url("https://excalidraw.com/Cascadia.woff2");
      }
    </style>
  </defs>
  <g stroke-linecap="round" transform="translate(10 10) rotate(0 55.619708262685776 57.01894620640118)"><path d="M111.24 57.02 C111.24 59.5, 111.08 62, 110.76 64.46 C110.45 66.92, 109.97 69.38, 109.34 71.78 C108.72 74.17, 107.93 76.55, 107.01 78.84 C106.08 81.13, 105 83.38, 103.79 85.53 C102.58 87.68, 101.22 89.76, 99.75 91.73 C98.27 93.7, 96.66 95.58, 94.95 97.34 C93.24 99.09, 91.4 100.74, 89.48 102.26 C87.56 103.77, 85.53 105.16, 83.43 106.4 C81.33 107.64, 79.14 108.75, 76.9 109.7 C74.67 110.65, 72.35 111.45, 70.02 112.1 C67.68 112.74, 65.28 113.23, 62.88 113.55 C60.48 113.87, 58.04 114.04, 55.62 114.04 C53.2 114.04, 50.76 113.87, 48.36 113.55 C45.96 113.23, 43.56 112.74, 41.22 112.1 C38.89 111.45, 36.57 110.65, 34.33 109.7 C32.1 108.75, 29.91 107.64, 27.81 106.4 C25.71 105.16, 23.68 103.77, 21.76 102.26 C19.84 100.74, 18 99.09, 16.29 97.34 C14.58 95.58, 12.97 93.7, 11.49 91.73 C10.02 89.76, 8.66 87.68, 7.45 85.53 C6.24 83.38, 5.16 81.13, 4.23 78.84 C3.31 76.55, 2.52 74.17, 1.9 71.78 C1.27 69.38, 0.79 66.92, 0.48 64.46 C0.16 62, 0 59.5, 0 57.02 C0 54.54, 0.16 52.04, 0.48 49.58 C0.79 47.12, 1.27 44.66, 1.9 42.26 C2.52 39.87, 3.31 37.49, 4.23 35.2 C5.16 32.91, 6.24 30.66, 7.45 28.51 C8.66 26.36, 10.02 24.28, 11.49 22.31 C12.97 20.34, 14.58 18.45, 16.29 16.7 C18 14.95, 19.84 13.29, 21.76 11.78 C23.68 10.27, 25.71 8.88, 27.81 7.64 C29.91 6.4, 32.1 5.29, 34.33 4.34 C36.57 3.39, 38.89 2.58, 41.22 1.94 C43.56 1.3, 45.96 0.81, 48.36 0.49 C50.76 0.16, 53.2 0, 55.62 0 C58.04 0, 60.48 0.16, 62.88 0.49 C65.28 0.81, 67.68 1.3, 70.02 1.94 C72.35 2.58, 74.67 3.39, 76.9 4.34 C79.14 5.29, 81.33 6.4, 83.43 7.64 C85.53 8.88, 87.56 10.27, 89.48 11.78 C91.4 13.29, 93.24 14.95, 94.95 16.7 C96.66 18.45, 98.27 20.34, 99.75 22.31 C101.22 24.28, 102.58 26.36, 103.79 28.51 C105 30.66, 106.08 32.91, 107.01 35.2 C107.93 37.49, 108.72 39.87, 109.34 42.26 C109.97 44.66, 110.45 47.12, 110.76 49.58 C111.08 52.04, 111.16 55.78, 111.24 57.02 C111.32 58.26, 111.32 55.78, 111.24 57.02" stroke="none" stroke-width="0" fill="#fa5252"></path><path d="M111.24 57.02 C111.24 59.5, 111.08 62, 110.76 64.46 C110.45 66.92, 109.97 69.38, 109.34 71.78 C108.72 74.17, 107.93 76.55, 107.01 78.84 C106.08 81.13, 105 83.38, 103.79 85.53 C102.58 87.68, 101.22 89.76, 99.75 91.73 C98.27 93.7, 96.66 95.58, 94.95 97.34 C93.24 99.09, 91.4 100.74, 89.48 102.26 C87.56 103.77, 85.53 105.16, 83.43 106.4 C81.33 107.64, 79.14 108.75, 76.9 109.7 C74.67 110.65, 72.35 111.45, 70.02 112.1 C67.68 112.74, 65.28 113.23, 62.88 113.55 C60.48 113.87, 58.04 114.04, 55.62 114.04 C53.2 114.04, 50.76 113.87, 48.36 113.55 C45.96 113.23, 43.56 112.74, 41.22 112.1 C38.89 111.45, 36.57 110.65, 34.33 109.7 C32.1 108.75, 29.91 107.64, 27.81 106.4 C25.71 105.16, 23.68 103.77, 21.76 102.26 C19.84 100.74, 18 99.09, 16.29 97.34 C14.58 95.58, 12.97 93.7, 11.49 91.73 C10.02 89.76, 8.66 87.68, 7.45 85.53 C6.24 83.38, 5.16 81.13, 4.23 78.84 C3.31 76.55, 2.52 74.17, 1.9 71.78 C1.27 69.38, 0.79 66.92, 0.48 64.46 C0.16 62, 0 59.5, 0 57.02 C0 54.54, 0.16 52.04, 0.48 49.58 C0.79 47.12, 1.27 44.66, 1.9 42.26 C2.52 39.87, 3.31 37.49, 4.23 35.2 C5.16 32.91, 6.24 30.66, 7.45 28.51 C8.66 26.36, 10.02 24.28, 11.49 22.31 C12.97 20.34, 14.58 18.45, 16.29 16.7 C18 14.95, 19.84 13.29, 21.76 11.78 C23.68 10.27, 25.71 8.88, 27.81 7.64 C29.91 6.4, 32.1 5.29, 34.33 4.34 C36.57 3.39, 38.89 2.58, 41.22 1.94 C43.56 1.3, 45.96 0.81, 48.36 0.49 C50.76 0.16, 53.2 0, 55.62 0 C58.04 0, 60.48 0.16, 62.88 0.49 C65.28 0.81, 67.68 1.3, 70.02 1.94 C72.35 2.58, 74.67 3.39, 76.9 4.34 C79.14 5.29, 81.33 6.4, 83.43 7.64 C85.53 8.88, 87.56 10.27, 89.48 11.78 C91.4 13.29, 93.24 14.95, 94.95 16.7 C96.66 18.45, 98.27 20.34, 99.75 22.31 C101.22 24.28, 102.58 26.36, 103.79 28.51 C105 30.66, 106.08 32.91, 107.01 35.2 C107.93 37.49, 108.72 39.87, 109.34 42.26 C109.97 44.66, 110.45 47.12, 110.76 49.58 C111.08 52.04, 111.16 55.78, 111.24 57.02 C111.32 58.26, 111.32 55.78, 111.24 57.02" stroke="#c92a2a" stroke-width="2" fill="none"></path></g><g transform="translate(35.88590195873428 38.67485214260711) rotate(0 30.232725575813674 29.545618176363377)"><text x="0" y="47.09123635272675" font-family="Cascadia, Segoe UI Emoji" font-size="49.471732760422384px" fill="#fff" text-anchor="start" style="white-space: pre;" direction="ltr">TD</text></g></svg>