<svg version="1.1" xmlns="http://www.w3.org/2000/svg" viewBox="0 0 303 435" width="303" height="435" filter="invert(93%) hue-rotate(180deg)">
  <!-- svg-source:excalidraw -->
  
  <defs>
    <style class="style-fonts">
      @font-face {
        font-family: "Virgil";
        src: url("https://excalidraw.com/Virgil.woff2");
      }
      @font-face {
        font-family: "Cascadia";
        src: url("https://excalidraw.com/Cascadia.woff2");
      }
    </style>
  </defs>
  <rect x="0" y="0" width="303" height="435" fill="#ffffff"></rect><g stroke-linecap="round" transform="translate(39 75) rotate(0 54.5 27)"><path d="M0 0 C0 0, 0 0, 0 0 M0 0 C0 0, 0 0, 0 0 M0.46 6.05 C1.62 5.33, 2.6 3.23, 5.01 0.17 M-0.59 6.36 C1.16 4.69, 2.62 2.4, 4.68 0.28 M0.18 10.77 C4.93 6.44, 7.78 4.37, 11.06 -0.84 M0.2 11.28 C2.83 9.24, 4.61 7.2, 11.38 0.43 M-1.07 18.42 C6.13 11.63, 10.57 6.66, 17.5 1.75 M0.87 19.05 C4.16 13.27, 9.43 6.77, 16.36 0.8 M-0.37 25.01 C8.81 14.89, 16.76 4.29, 20.07 0.75 M-0.43 23.09 C4.49 19.09, 8.23 13.55, 22.02 -0.21 M-0.67 30.34 C6.22 22.65, 10.34 16.22, 24.49 1.6 M0.65 31.44 C7.84 21.19, 13.89 14.02, 26.84 1 M-0.24 35.89 C6.4 26.39, 16.96 17.8, 30.17 1.09 M0.68 36.88 C9.53 24.02, 20.27 13.71, 32.3 -0.1 M0.31 42.83 C12.55 27.92, 26.78 12.17, 37.99 -0.71 M-0.46 42.45 C10.15 30.58, 18.89 20.2, 37.86 0.44 M1.01 48.33 C10.57 37.17, 16.34 29.57, 42.5 1.55 M0.5 48.19 C10.59 37.99, 18.82 27.78, 43.21 0.55 M2.05 56.34 C10.09 43.75, 22.61 31.98, 47.6 -1.39 M-0.2 55.33 C11.26 41.85, 22.29 27.91, 47.09 0.58 M5.35 54.93 C19.16 36.1, 32.59 20.55, 54.71 0.63 M5.38 54 C16.24 43.13, 25.54 31.42, 53.53 0.75 M11.78 56.16 C28.29 31.19, 48.25 8.85, 58.5 1.25 M10.12 54.55 C22.78 40.61, 33.49 27.09, 58.65 -0.33 M15.77 53.78 C28.99 36.01, 44.1 23.63, 63.03 -0.31 M15.57 53.65 C34.77 34.75, 51.09 14.49, 62.95 -0.22 M22.38 54.62 C38.05 37.55, 52.35 20.09, 69.47 0.79 M21.16 55.05 C32.59 42.15, 41.27 29.97, 68.09 -0.21 M25.57 54.61 C40.43 37.63, 55.94 22.32, 76.27 1.04 M27.47 54.04 C39.91 39.06, 55.6 21.53, 75.16 0.22 M33.8 52.88 C47.32 35.45, 62.6 16.2, 78.87 0.72 M32.02 54.96 C47.44 36.87, 62.98 18.99, 79.46 -0.21 M36.26 55.79 C53.89 34.01, 73.06 12.8, 85.86 -2.12 M38.54 53.6 C54.11 35.75, 69.25 19.89, 84.78 -1.05 M44.57 55.02 C58.13 36.44, 71.56 23.72, 90.68 0.46 M42.77 54.73 C55.7 38.66, 68.88 24.13, 90.21 0.32 M46.93 55.61 C65.09 36.51, 78.33 21.08, 95.81 0.31 M47.71 54.54 C62.22 38.55, 75.54 21.71, 96.39 0.16 M53.83 54.04 C70.5 35.8, 87.09 17.18, 100.45 1.31 M53.43 54.11 C64.16 41.38, 73.43 30.47, 100.28 0.84 M59.59 55.01 C70.72 38.57, 87.46 24.61, 104.72 1.35 M57.67 54.63 C69.57 43.1, 78.57 31.63, 105.5 0.31 M63.31 53.8 C77.58 39.18, 90.26 23.98, 108.67 1.23 M64.95 55.12 C73.98 42.81, 83.52 31.52, 110.4 1.34 M67.85 56.56 C82.27 37.25, 100.1 20.44, 109.23 6.45 M68.56 55.17 C84.79 36.53, 101.63 18.32, 111.06 6.72 M75.34 55.1 C85.13 43.9, 93.48 30.37, 110.26 14.68 M74.26 55.11 C87.45 41.44, 98.68 26.24, 110.55 13.19 M78.91 55.01 C87.29 45.58, 92.21 39.27, 109.75 17.44 M79 54.52 C86.97 45.54, 96.68 34.83, 110.11 18.45 M86.84 53.65 C92.25 43.22, 100.97 36.38, 110.7 23.85 M85.23 53.7 C90.7 48.29, 95.53 42.77, 111.17 25.4 M90.24 56.28 C97.44 44.41, 105.02 37.67, 112.62 31.5 M89.7 54.09 C95.11 49.32, 100.21 44.18, 110.98 30.33 M95.3 54.06 C101.59 49.2, 104.92 41.22, 111.26 38.43 M95.7 53.81 C100.41 48.21, 105.9 42.57, 111.36 37.38 M102.31 55.7 C103.64 53.16, 104.02 48.78, 110.14 45.43 M101.58 54.24 C103.78 50.38, 107.57 46.13, 110.29 44.55 M106.05 54.7 C107.08 52.86, 107.82 51.91, 110.8 50.16 M106.53 54.36 C107.21 52.96, 108.31 52.02, 110.45 49.64" stroke="#be4bdb" stroke-width="0.5" fill="none"></path><path d="M0.9 1.33 C37.29 -1.99, 71.43 -1.38, 110.38 0.67 M-0.78 -0.99 C33.16 1.17, 64.17 0.08, 109.58 -0.57 M107.97 -1.12 C108.19 15.95, 108.43 28.2, 108.94 55.69 M109.57 -0.86 C108.45 21.96, 108.08 42.9, 108.66 53.42 M109.96 54.59 C79.9 52.7, 54.38 52.62, -1.62 55.23 M108.56 54.29 C70.39 52.53, 31.41 52.73, -0.73 54.32 M-1.44 54.68 C-1.18 38.4, -0.94 19.36, 0.34 1.63 M-0.18 53.21 C0.02 41.53, -0.12 28.49, 0.31 -0.2" stroke="#000000" stroke-width="1" fill="none"></path></g><g stroke-linecap="round" transform="translate(41 201) rotate(0 54.5 27)"><path d="M0 0 C0 0, 0 0, 0 0 M0 0 C0 0, 0 0, 0 0 M-0.78 6.17 C1.35 4.5, 2.56 2.22, 4.28 1.16 M-0.15 6.22 C0.68 5.43, 2.06 3.39, 4.61 0.07 M0.94 10.67 C3.14 7.5, 8.48 2.01, 10.61 0.4 M-0.23 12.47 C3.45 8.58, 5.28 6.75, 9.95 0.2 M-2.04 17.3 C5.38 14.99, 7.03 10.99, 14.26 -0.93 M-0.91 17.44 C4.57 12.52, 10.28 6.25, 15.19 -0.13 M-1.34 22.89 C6.63 17.87, 15.51 7.37, 22.33 1.18 M-0.33 24.17 C7.65 15.03, 16.23 6.47, 21.49 -0.66 M-0.13 29.89 C7.28 22.82, 13.08 15.61, 24.37 -0.9 M-0.95 29.72 C5.68 23.03, 11.44 17.01, 26.33 0.18 M1.73 35.46 C9.45 28.27, 17.23 16.32, 30.7 -0.88 M-0.81 37.13 C6.95 28.2, 13.13 21.7, 31.55 -0.52 M0.02 44.27 C10.9 31.59, 17.54 21.07, 35.2 0.52 M0.84 42.79 C14.33 24.85, 28.87 10, 37.36 0 M0.2 47.74 C13.72 33.49, 28.73 17.59, 42.6 0.47 M-0.97 48.78 C12.6 34.17, 25.01 21.11, 42.12 -0.83 M0.14 53.69 C12.11 41.54, 21.29 30.7, 47.32 1.02 M0.18 54.58 C15.46 37.01, 30.21 18.18, 48.49 1.18 M6.77 54.51 C16.25 43.3, 25.29 28.44, 52.79 -2.03 M6.18 54.39 C17.64 40.26, 30.23 26.76, 53.19 -0.09 M12.4 53.95 C23.68 37.28, 40.17 21.18, 58.23 -0.12 M11.11 53.94 C22.99 41.46, 34.97 27.34, 57.2 1.05 M16.48 55.68 C33.94 36.62, 51.47 16.92, 61.97 0.94 M16.39 54.23 C34.41 33.4, 52.54 12.33, 63.51 -0.91 M21.85 53.55 C38.16 33.1, 57.38 16.32, 68.29 -0.04 M21.44 53.8 C39 33.9, 56.3 14.55, 69.28 -0.63 M28 54.51 C40.05 40.71, 50.03 27.79, 74.72 1.29 M26.4 54.78 C42.26 36.84, 56.45 20.47, 73.63 -0.9 M31.95 55.55 C47.06 36.69, 64.94 15.66, 78.82 1.74 M31.31 53.96 C50.52 33.18, 67.5 14.34, 79.81 -0.62 M37.5 54.62 C57.95 32.34, 73.62 12.8, 85.54 -0.47 M36.87 54.72 C54.6 36.99, 70.16 18.87, 84.93 0.26 M44.09 55.58 C56.12 38.33, 70.21 23.32, 90.01 1.26 M43.64 54.18 C58.59 36.41, 74.34 18.91, 90.18 0.75 M48.06 55.17 C64.03 37.29, 79.46 19.74, 96.84 -1.22 M48.75 53.15 C61.16 39.5, 73.25 26.75, 96.55 -0.14 M51.53 55.88 C64.25 41.96, 74.13 32.41, 98.96 0.19 M53.14 55.2 C65.78 39.79, 78.42 25.33, 101.05 0.62 M59 53.69 C71.49 43.95, 80.04 28.32, 104.92 -1.27 M57.6 55.41 C74.91 35.19, 92.3 15.46, 106.44 -0.88 M65.46 55.25 C81.41 33.46, 101.57 12.3, 109.03 0.52 M63.32 53.67 C79.02 36.75, 92.45 20.44, 110.75 1.31 M70.51 53.06 C81.2 38.84, 95.83 23.98, 111.43 5.22 M69.29 54.99 C80.13 41.73, 90.26 29.22, 109.79 7.78 M72.98 55.13 C82.43 47.49, 91.31 37.72, 111.3 12.41 M75.49 55.22 C81.3 46.36, 88.98 36.13, 109.71 13.19 M77.75 55.98 C87.42 44.65, 95.24 37.39, 109.13 18.11 M78.99 55.14 C85.99 46.28, 93.9 37.56, 109.76 18.95 M87.07 53.52 C91.02 46.75, 98.3 39.76, 108.75 25.46 M85.77 53.43 C94.75 44.23, 103.54 33.91, 109.66 24.92 M91.4 56.02 C93.91 48.7, 100.19 43.5, 111.97 30.36 M90.84 54.78 C94.7 49.76, 101.24 43.79, 110.65 31.21 M96.65 55.03 C99.38 49.3, 103.25 45.23, 109.44 36.46 M96.05 54.83 C101.01 46.79, 107.1 41.13, 109.79 38.2 M99.63 55.82 C105.38 51.3, 108.99 45.75, 110.9 44.57 M100.45 54.38 C104.51 50.91, 108.95 46.4, 110.68 44.26 M107.15 53.81 C107.52 52.44, 109.44 52.03, 110.06 49.49 M106.71 54.12 C107.15 53.09, 108.03 52.4, 110.44 49.91" stroke="#fa5252" stroke-width="0.5" fill="none"></path><path d="M-1.81 0.01 C30.48 0.96, 60.7 1.11, 109.47 1.66 M0.01 0.76 C23.97 -0.57, 47.86 -0.03, 109.28 -0.58 M110.29 0.23 C107 11.36, 106.99 23.84, 107.4 54.02 M108.31 0.75 C108.94 19.8, 108.19 39.89, 108.96 53.65 M110.18 54.12 C67.68 53.7, 24.12 55.25, -0.22 53.41 M109.06 54.08 C68.97 55.77, 29.91 54.25, 0.35 53.93 M1.78 53.05 C-1.41 40.4, 0.53 28.33, 0.09 0.05 M-0.91 53.82 C-0.09 40.1, -0.67 27.39, -0.04 -0.84" stroke="#000000" stroke-width="1" fill="none"></path></g><g stroke-linecap="round" transform="translate(39 276) rotate(0 54.5 27)"><path d="M0 0 C0 0, 0 0, 0 0 M0 0 C0 0, 0 0, 0 0 M-0.85 7 C1.1 5.48, 1.92 3.95, 5.64 -0.27 M-0.46 6.29 C1.2 5.03, 2.49 3.29, 4.93 0.56 M0 12.14 C2.72 9.64, 5.9 4.08, 9.4 1.35 M-0.17 12.37 C1.61 9.67, 4.1 6.9, 11.22 -0.41 M1.11 17.92 C4.56 11.26, 13.73 4.51, 17.39 0.93 M0.67 18.77 C6.32 11.18, 12.31 4.44, 15.6 0.64 M1.54 24.45 C6.14 18.41, 10.06 11.5, 19.75 1.51 M0.9 24.15 C8.49 14.98, 15.33 6.4, 20.54 0.44 M-1 31.91 C7.74 23.5, 14.19 16.13, 26.66 -0.06 M0.13 30.38 C9.85 18.85, 19.17 9.25, 26.25 0.01 M0.58 36.13 C13.15 23.59, 24.22 9.06, 33.07 0.16 M0.45 36.09 C8.32 27, 14.6 19.49, 31.15 -0.22 M1.75 40.93 C14.39 27.39, 26.76 14.34, 36.14 -0.3 M0.43 41.54 C12.02 28.1, 24.2 16.25, 37.77 1.03 M-0.74 48.45 C16.61 32.11, 32.18 13.41, 41.33 1.71 M0.14 48.35 C8.97 38.65, 18.53 27.03, 42.05 0.32 M0.75 55.94 C12.22 39.01, 27.17 25.19, 48.17 1.01 M-0.18 54.64 C16.38 36.84, 30.81 19.01, 47.09 1.01 M4.28 55.04 C22.03 32.24, 41.62 14.94, 52.39 0.16 M5.55 53.79 C23.32 33.33, 42.85 12.79, 52.48 -0.33 M9.51 53.74 C19.65 42.79, 30.59 31.99, 59.66 -0.44 M11.51 54.75 C21.2 41.52, 33.54 29.21, 58.06 -0.4 M18.36 56 C30.72 38.93, 46.69 20.33, 63.73 1.43 M16.71 55.12 C30.59 37.94, 43.28 23.91, 63.18 -0.76 M22.1 55.18 C34.04 39.13, 48.65 19.82, 68.13 -0.04 M21.18 54.94 C36.09 38.58, 50.43 22.06, 68.52 -0.28 M25.54 56.07 C40.27 36.79, 54.94 23.58, 76.38 1.31 M26.27 54.11 C44.64 35.85, 61.35 14.93, 75.33 -0.77 M30.72 54.95 C44.31 40.66, 54.64 31.33, 77.67 1.72 M31.42 54.95 C45.38 40.18, 57.1 26.51, 79.25 0.59 M37.07 53.66 C48.08 44.24, 57.8 29.85, 85.02 -0.47 M38.45 53.55 C54.16 36.77, 68.27 18.74, 85.56 -0.37 M41.14 55.64 C58.66 35.99, 79.01 14.36, 89 1.27 M42.32 54.35 C53.59 41.96, 65.52 27.46, 90.98 0.73 M48.76 52.04 C65.62 33.58, 86.02 10.41, 95.89 -2.3 M49.42 53.52 C66.99 34.33, 84.19 13.36, 94.95 -0.76 M54.73 53.74 C68.26 34.62, 86.13 20.36, 101.39 1.92 M54.39 53.49 C63.73 41.77, 73.23 30.47, 101.4 0.98 M58.37 54.18 C72.48 38.45, 88.07 17.61, 104.81 1.36 M57.66 55.15 C77.84 34.32, 95.08 11.86, 106.04 -1.34 M62.46 53.66 C83.29 33.16, 101.02 13.36, 110.08 0.66 M63.6 54.54 C72.16 42.84, 82.25 32.81, 111.49 0.18 M70.24 53.68 C80.56 40.25, 94.28 25.12, 108.68 5.48 M69.54 54.62 C81.09 41.09, 92.79 27.86, 111.26 6.81 M74.89 53.71 C80.74 46.24, 90.28 37.21, 111.72 11.95 M74.39 54.44 C82.05 45.84, 88.07 36.98, 110 14.08 M81.29 53.3 C86.57 47.03, 92.83 38.06, 111.13 18.38 M80.45 54.65 C91.01 41.73, 102.64 29.48, 109.68 19.86 M84.16 56.1 C88.98 49.21, 97.95 40.8, 108.52 27.01 M84.64 53.93 C91.98 44.94, 100.8 36.88, 110.62 25.55 M89.75 55.95 C98.23 44.28, 105.73 38.6, 108.73 32.79 M90.36 54.51 C96 48.14, 101.51 41.43, 110.12 31.27 M94.02 52.95 C99.03 46.98, 106.16 43.06, 109.5 37.53 M96.68 54.57 C101.87 47.92, 106.07 41.28, 110.21 37.36 M100.55 55.22 C103.82 50.87, 106.94 46.14, 110.75 43.04 M100.42 54.03 C102.54 52.62, 106.06 48.73, 110.24 43.72 M106.35 53.64 C108.07 52.9, 108.85 52.45, 110.03 50.19 M106.49 54.06 C108.21 52.36, 109.69 50.51, 110.42 49.42" stroke="#fa5252" stroke-width="0.5" fill="none"></path><path d="M-1.36 -0.83 C30.23 0.51, 58.46 1.7, 108.44 0.77 M-0.74 0.78 C28.89 -0.3, 56.23 0.64, 108.47 -0.17 M107.97 0.75 C110.89 19.54, 107.62 36.95, 109.88 55.63 M108.09 0.18 C109.21 10.6, 108.93 22.86, 108.22 54.02 M107.89 55.02 C70.45 53.42, 35.71 55.54, -0.78 53.64 M109.96 53.62 C81.52 54.84, 54.42 53.64, -0.98 53.51 M0.64 52.34 C-0.3 33.3, -1.44 11.22, 0.85 0.12 M-0.1 54.35 C0.3 33.57, -0.16 15.35, -0.38 0.55" stroke="#000000" stroke-width="1" fill="none"></path></g><g stroke-linecap="round" transform="translate(38 355) rotate(0 54.5 27)"><path d="M0 0 C0 0, 0 0, 0 0 M0 0 C0 0, 0 0, 0 0 M-0.39 6.09 C2.15 3.33, 4.01 1.26, 4.94 0.95 M0.08 6.64 C0.91 4.61, 2.34 3.69, 5.02 0.72 M1.05 13.31 C4.02 8.45, 6.7 4.32, 10.8 -0.06 M-0.43 12.55 C3.81 8.26, 7.26 3.7, 10.45 -0.64 M-0.32 19.7 C5.85 12.23, 11.5 3.35, 16.34 -1.12 M-0.91 17.94 C6.18 12.46, 11.41 5.84, 16.35 0.53 M1.8 24.33 C5.86 18.49, 10.45 11.78, 21.83 -0.06 M-0.39 24.5 C5.46 18.46, 11.44 11.65, 20.53 0.52 M1.62 31.89 C6.82 22.8, 14.92 10.66, 27.09 -1.18 M-0.73 31.28 C6.6 22.32, 14.81 13.25, 27.12 -0.08 M-0.45 37.45 C6.46 27.2, 15.31 17.98, 33.36 1.69 M0.28 36.57 C11.39 23.54, 24.38 9.62, 32.13 -0.7 M1.32 43.04 C13.73 25.24, 30.98 8.9, 37.07 -0.69 M0.81 42.76 C13.64 27.41, 25.46 13.81, 37.21 0.59 M-1.03 48.01 C14.31 33.15, 29.26 13.64, 43.98 -0.98 M0.04 48.1 C16.14 29.58, 30.91 12.12, 42.9 -0.52 M0.41 53.84 C14.06 35.98, 29.2 22.16, 46.87 -1.12 M0.84 53.86 C13.74 38.16, 27.86 22.93, 48.43 0.98 M4.99 55.39 C19.44 38.15, 30.06 26.63, 51.79 -0.33 M5.38 55.07 C18.18 40.8, 29.34 28.35, 52.98 -0.2 M10.65 54.85 C30.99 34.41, 45.57 12.06, 59.66 -1 M11.44 54.81 C22.79 40.24, 34.74 27.03, 57.51 -0.13 M14.59 53.42 C31.11 38.9, 44.44 22.89, 64.51 -0.7 M17.15 53.32 C29.74 40.21, 40 26.96, 63.98 0.78 M20.37 52.68 C39.1 35.67, 58.52 14.98, 67.18 2 M21.16 53.77 C33.87 41.98, 44.33 28.48, 69.17 -0.71 M26.08 52.62 C46.36 35.34, 61.99 14.03, 73.46 -0.53 M26.92 53.73 C43.82 35.45, 61.29 16.36, 73.95 -0.25 M32.02 55.75 C44.7 40.02, 60.34 21.56, 79.81 1.16 M31.48 53.63 C46.15 38.08, 59.82 23.83, 79.06 -0.4 M36.92 53.11 C54.93 33.59, 73.12 14.98, 83.53 1.64 M37.76 54.23 C53.57 33.61, 72.16 14.77, 84.39 -0.17 M41.61 56.4 C50.87 45.43, 61.57 34, 88.48 -1.35 M43.35 55.08 C54.4 40.42, 65.85 27.81, 90.78 0.45 M49.19 55.96 C65.68 33.18, 84.69 10.35, 95.22 1.18 M48.74 54.01 C66.54 31.71, 86.34 10.3, 95.27 -1.05 M52.76 52.89 C71.97 35.27, 90.28 12.24, 98.74 -0.47 M54.16 53.6 C62.08 44.24, 71.73 33.29, 100.9 -0.22 M58.91 53.85 C73.43 36.52, 85.95 21.7, 106.62 1.37 M59.18 55.35 C69.43 40.86, 81.57 28.22, 105.99 -1.19 M62.7 55.36 C73.93 43.04, 84.21 30.7, 112.08 2.55 M64.76 54.46 C76.46 39.32, 89.68 26, 111.27 1.57 M68.64 54.14 C78.8 44.78, 87.19 31.93, 108.86 6.94 M68.35 55.53 C83.24 38.24, 98.47 21.22, 109.86 7.48 M76.23 55.87 C83.54 44.07, 92.93 34.53, 111.37 11.91 M74.47 53.74 C88.87 38.65, 101.43 25.57, 109.52 12.7 M81.59 53.34 C90.34 39.52, 102.05 28.56, 111.82 19.97 M80.51 54.4 C89.22 44.64, 96.69 34.34, 110.83 18.25 M83.74 54.4 C94.52 43.76, 103.66 32.85, 109.1 24.58 M86.02 53.33 C92.1 44.76, 99.47 37.25, 110.22 25.17 M90.21 56.12 C96.72 48.51, 102.2 38.9, 110.32 30.92 M90.5 54.37 C96.02 47.86, 101.45 41.13, 110.6 31.71 M95.25 52.8 C97.66 48.51, 104.35 48.23, 108.52 38 M96.64 53.87 C98.73 50.95, 103.01 46.48, 111.1 36.85 M101.35 54.23 C103.65 51.27, 107.21 47.22, 108.76 43.63 M100.38 54.28 C102.98 52.44, 104.3 50.29, 109.85 43.66 M106.5 53.81 C108.44 52.88, 108.93 50.76, 110.4 49.72 M106.7 54.11 C107.89 53.16, 108.54 51.57, 110.5 49.84" stroke="#fa5252" stroke-width="0.5" fill="none"></path><path d="M-0.78 -1.82 C41.96 1.71, 82.1 1.15, 110.11 -1.57 M-0.42 -0.55 C33.47 -0.14, 65.86 1.25, 110 -0.39 M109.26 1.91 C107.99 15.14, 110.14 31.02, 108 52.04 M108.74 0.32 C108.65 13.56, 109.65 26.57, 108.64 54.43 M109.61 53.81 C76.33 54.67, 40.57 53.76, 1.03 53.25 M108.31 53.13 C69.59 53.21, 31.47 53.13, 0.7 53.2 M0.8 54.46 C2.09 37.71, 0.05 18.91, 0.89 0.59 M0.96 53.26 C1.29 38.57, 0.96 22.39, 0.03 0.82" stroke="#000000" stroke-width="1" fill="none"></path></g><g stroke-linecap="round" transform="translate(161 76) rotate(0 54.5 27)"><path d="M0 0 C0 0, 0 0, 0 0 M0 0 C0 0, 0 0, 0 0 M-0.99 6.96 C1.24 4.65, 2.23 3.8, 4.41 0.19 M-0.37 6.47 C1.16 5.28, 2.5 3.99, 4.61 0.23 M-0.9 11.59 C3.35 8.25, 5.77 3.69, 9.21 1.56 M0.36 11.68 C2.02 10.11, 4.78 6.02, 9.88 -0.61 M0.88 16.72 C4.63 11.59, 12.32 3.56, 15.59 0.87 M-0.59 18.97 C4.65 13.37, 7.6 10.32, 14.77 0.62 M-1.64 22.95 C7.04 19.1, 10.01 13.58, 19.9 -1.32 M-0.52 23.08 C6.82 15.98, 14.39 7.58, 20.83 -0.53 M-1.6 29.29 C8.03 22.28, 18.61 9.81, 27.31 1.54 M-0.6 30.57 C9.28 19.29, 19.76 8.53, 26.47 -0.3 M-0.39 36.29 C8.41 27.62, 15.58 18.83, 30.01 -1.3 M-1.21 36.12 C6.7 27.87, 13.79 20.32, 31.97 -0.21 M2.13 41.1 C10.96 32.55, 19.89 19.29, 35.69 -0.52 M-0.41 42.77 C8.29 32.71, 15.44 25.11, 36.53 -0.16 M-0.24 50.67 C12.05 36.36, 20.13 24.18, 40.84 0.12 M0.58 49.19 C16.43 28.56, 33.31 11.03, 43.01 -0.4 M0.6 53.39 C15.69 37.37, 32.22 19.73, 47.58 0.83 M-0.58 54.42 C14.31 38.26, 28.06 23.67, 47.11 -0.47 M5.79 53.3 C17.75 41.14, 26.94 30.31, 52.97 0.63 M5.82 54.19 C21.1 36.61, 35.85 17.79, 54.14 0.78 M11.76 54.87 C21.24 43.66, 30.28 28.8, 57.78 -1.67 M11.17 54.75 C22.62 40.63, 35.22 27.12, 58.18 0.27 M18.04 53.55 C29.33 36.88, 45.82 20.79, 63.87 -0.52 M16.75 53.55 C28.63 41.07, 40.61 26.95, 62.85 0.65 M21.47 56.04 C38.93 36.98, 56.45 17.28, 66.96 1.3 M21.37 54.59 C39.39 33.76, 57.52 12.69, 68.49 -0.55 M27.49 53.16 C43.81 32.71, 63.03 15.93, 73.94 -0.43 M27.09 53.4 C44.64 33.5, 61.94 14.16, 74.93 -1.02 M32.99 54.87 C45.04 41.07, 55.01 28.15, 79.71 1.65 M31.39 55.14 C47.25 37.2, 61.43 20.83, 78.62 -0.54 M37.6 55.16 C52.7 36.29, 70.58 15.26, 84.47 1.34 M36.96 53.56 C56.17 32.78, 73.14 13.94, 85.46 -1.01 M42.49 54.98 C62.94 32.7, 78.61 13.16, 90.53 -0.11 M41.86 55.08 C59.59 37.35, 75.15 19.23, 89.92 0.62 M49.73 55.19 C61.76 37.94, 75.85 22.92, 95.65 0.87 M49.28 53.79 C64.24 36.02, 79.99 18.52, 95.82 0.36 M53.05 55.53 C69.02 37.65, 84.44 20.1, 101.83 -0.86 M53.73 53.51 C66.14 39.86, 78.24 27.11, 101.53 0.22 M56.52 56.24 C69.37 42.15, 79.4 32.44, 104.6 -0.2 M58.12 55.56 C70.94 39.96, 83.75 25.3, 106.69 0.22 M64.64 53.3 C76.82 43.9, 85.08 28.61, 109.25 -0.16 M63.25 55.01 C80.08 35.32, 97 16.14, 110.77 0.23 M70.45 55.61 C84.41 36.17, 102.52 17.37, 108.77 6.92 M68.3 54.03 C82.4 39.02, 94.17 24.63, 110.49 7.71 M76.16 52.66 C84.93 40.62, 97.62 28, 111.17 11.61 M74.94 54.6 C84.24 43.15, 92.81 32.44, 109.52 14.17 M77.97 55.49 C86.46 48.99, 94.35 40.38, 111.7 18.05 M80.48 55.58 C85.32 47.87, 92.04 38.74, 110.11 18.84 M83.39 55.59 C91.74 45.84, 98.21 40.13, 108.87 24.51 M84.64 54.75 C90.33 47.46, 96.91 40.28, 109.5 25.35 M92.06 53.88 C94.79 48.5, 100.86 42.9, 109.14 31.1 M90.75 53.79 C98.04 46.54, 105.15 38.15, 110.05 30.57 M97.04 55.63 C98.31 49.73, 103.3 46.01, 111.71 36.76 M96.48 54.38 C98.85 51.06, 103.9 46.81, 110.39 37.61 M101.42 55.16 C103.03 51.47, 105.45 48.96, 109.46 43.22 M101 55.01 C104.11 49.82, 108 46.28, 109.7 44.43 M106.01 54.73 C108.48 52.8, 110.03 50.42, 110.85 49.92 M106.37 54.12 C108.11 52.63, 110.01 50.7, 110.75 49.78" stroke="#be4bdb" stroke-width="0.5" fill="none"></path><path d="M-0.9 0.1 C24.14 -1.22, 44.72 -1.53, 109.19 -1.41 M0.39 0.18 C33.13 -0.49, 65.14 -0.01, 109.05 0.72 M107.19 0.01 C108.2 17.05, 107.63 32.45, 109.47 55.66 M109.01 0.76 C109.01 11.05, 108.93 23.47, 109.28 53.42 M110.29 54.23 C84.6 53.83, 61.78 55.01, -1.6 54.02 M108.31 54.75 C68.99 53.54, 28.44 53.91, -0.04 53.65 M1.18 54.12 C0.61 32.04, -0.52 12.57, -0.22 -0.59 M0.06 54.08 C-0.69 35.26, 0.1 13.99, 0.35 -0.07" stroke="#000000" stroke-width="1" fill="none"></path></g><g stroke-linecap="round" transform="translate(10 56) rotate(0 141.5 47.5)"><path d="M0.09 0.95 C68.33 -0.45, 136.39 -0.39, 283.48 -1.29 M0.42 0.62 C80.63 0.29, 161.2 0.3, 282.73 -0.05 M283.51 -0.85 C283.48 25.18, 284.12 50.62, 284.28 94.82 M282.94 -0.99 C284.41 29.68, 282.69 58.2, 283.46 95.43 M281.8 94.29 C192.94 95.35, 102.68 96.37, 0.46 95.41 M283.38 94.98 C191.83 94.75, 100.55 94.74, -0.25 95.57 M1.73 93.23 C0.55 68.94, -0.3 44.33, -1.84 0.41 M-0.46 95.86 C-0.87 72.9, 0.68 48.83, -0.77 -0.03" stroke="#364fc7" stroke-width="1" fill="none"></path></g><g stroke-linecap="round" transform="translate(10 184) rotate(0 80.5 120.5)"><path d="M-0.28 1 C52.54 0.49, 105.35 0.25, 161.12 -0.66 M-0.77 0.86 C59.46 0.83, 120.54 0.4, 161.41 -0.92 M162.23 -0.77 C161.25 75.67, 161.26 155.48, 160.57 239.71 M161.74 0.25 C163.27 70.78, 163.02 143.73, 161.27 241.16 M160.96 241.62 C114.33 240.63, 68.09 242.45, 0.37 241.47 M160.25 241.79 C110.9 240.4, 59.23 241.27, 0.07 241.31 M-1.2 241.85 C0.82 171.69, 0.1 99.84, 1.19 0.78 M0.17 240.85 C0.02 158.85, 0.22 76.54, -0.09 0.52" stroke="#364fc7" stroke-width="1" fill="none"></path></g><g transform="translate(23 10) rotate(0 132.5 17.5)"><text x="0" y="25" font-family="Virgil, Segoe UI Emoji" font-size="28px" fill="#000000" text-anchor="start" style="white-space: pre;" direction="ltr">Flex items in a row</text></g><g transform="translate(201 228) rotate(0 43 70)"><text x="43" y="25" font-family="Virgil, Segoe UI Emoji" font-size="28px" fill="#000000" text-anchor="middle" style="white-space: pre;" direction="ltr">Flex</text><text x="43" y="60" font-family="Virgil, Segoe UI Emoji" font-size="28px" fill="#000000" text-anchor="middle" style="white-space: pre;" direction="ltr">items </text><text x="43" y="95" font-family="Virgil, Segoe UI Emoji" font-size="28px" fill="#000000" text-anchor="middle" style="white-space: pre;" direction="ltr">in a </text><text x="43" y="130" font-family="Virgil, Segoe UI Emoji" font-size="28px" fill="#000000" text-anchor="middle" style="white-space: pre;" direction="ltr">column</text></g></svg>